<?xml version="1.0" encoding="UTF-8"?>
<svg version="1.1" xmlns="http://www.w3.org/2000/svg" width="500" height="500">
<path d="M0 0 C2.27168253 -0.06323648 4.54444211 -0.09286748 6.81700134 -0.09672546 C8.05812683 -0.12169601 9.29925232 -0.14666656 10.57798767 -0.1723938 C13.98189411 -0.23233 17.38359887 -0.26461932 20.7878449 -0.27987313 C22.91810266 -0.29081615 25.04815013 -0.30954264 27.17832756 -0.3308773 C34.62161893 -0.40437281 42.06428375 -0.44351317 49.50791931 -0.45414734 C56.42708649 -0.46503117 63.3422426 -0.55452461 70.2601853 -0.68036109 C76.21296735 -0.78481055 82.16442897 -0.83079835 88.11812013 -0.83288544 C91.66863061 -0.83525503 95.2150631 -0.86099659 98.76461983 -0.94687843 C120.26529075 -1.43581714 120.26529075 -1.43581714 125.95059395 2.30692863 C129.51477923 5.74428403 131.85505486 9.61421957 133.89215946 14.09828949 C134.91201237 16.28670972 136.23407215 18.16001664 137.6839447 20.08418274 C138.46092244 21.22458814 139.23570983 22.36648933 140.00816345 23.50996399 C140.92405678 24.85293964 141.84076448 26.19536016 142.75816345 27.53730774 C143.23124939 28.22937317 143.70433533 28.9214386 144.1917572 29.63447571 C146.93891774 33.63123752 149.72416538 37.60131405 152.50816345 41.57246399 C153.39145325 42.83256287 153.39145325 42.83256287 154.29258728 44.11811829 C155.49398928 45.83153977 156.69556895 47.5448367 157.89732361 49.25801086 C160.83291327 53.4441952 163.76412696 57.63344076 166.69566345 61.82246399 C170.17108299 66.78810937 173.64697779 71.75341825 177.12535095 76.71699524 C184.01294407 86.54746906 190.87860723 96.39288695 197.72984314 106.24873352 C203.79366963 114.96933078 209.88224657 123.67242843 215.97789001 132.37080383 C218.88528435 136.52032827 221.79034347 140.67148705 224.69566345 144.82246399 C225.8623192 146.4891383 227.02898586 148.15580497 228.19566345 149.82246399 C263.19566345 199.82246399 298.19566345 249.82246399 333.19566345 299.82246399 C333.77300232 300.64722229 334.35034119 301.47198059 334.94517517 302.32173157 C336.11351312 303.99080906 337.28180729 305.65991721 338.45005798 307.32905579 C341.34079834 311.45908737 344.23226199 315.58860845 347.12535095 319.71699524 C351.97263989 326.63539854 356.81682661 333.55586535 361.64097595 340.49043274 C362.30903259 341.4505426 362.97708923 342.41065247 363.66539001 343.39985657 C365.0109403 345.3367953 366.35407064 347.27541753 367.69468689 349.21577454 C371.03343696 354.04027657 374.41254436 358.82400812 377.89097595 363.54902649 C378.55226501 364.45846008 379.21355408 365.36789368 379.8948822 366.30488586 C381.15071704 368.02815619 382.42097071 369.74103787 383.7073822 371.44160461 C384.26296814 372.20924133 384.81855408 372.97687805 385.39097595 373.76777649 C386.13371765 374.76575256 386.13371765 374.76575256 386.89146423 375.78388977 C387.69566345 377.82246399 387.69566345 377.82246399 386.9874115 380.29512024 C386.56113464 381.12914368 386.13485779 381.96316711 385.69566345 382.82246399 C385.32529968 383.55577942 384.95493591 384.28909485 384.573349 385.04463196 C384.16382996 385.7937384 383.75431091 386.54284485 383.3323822 387.31465149 C382.86461365 388.17228088 382.39684509 389.02991028 381.91490173 389.91352844 C381.4094281 390.83222717 380.90395447 391.7509259 380.38316345 392.69746399 C379.85190857 393.66708069 379.32065369 394.63669739 378.77330017 395.63569641 C373.93849315 404.43391259 369.00174645 413.17331862 364.04722595 421.90449524 C360.57264591 428.03040633 357.13224268 434.17517579 353.69566345 440.32246399 C345.75407005 454.52211289 337.76935706 468.69746502 329.69566345 482.82246399 C312.93635069 483.19706362 296.17840517 483.47876518 279.41591167 483.65145874 C271.63167676 483.7337952 263.85004967 483.84592157 256.06748962 484.02949524 C249.27994862 484.18952155 242.49429607 484.29231697 235.70492107 484.32787991 C232.11228852 484.34865902 228.52505518 484.39705204 224.93416405 484.5141449 C203.12947644 485.1981717 203.12947644 485.1981717 197.43486977 481.25831795 C193.82459212 477.56594436 191.54602168 473.43587327 189.54024506 468.71185493 C188.3858194 466.12932014 186.8138102 463.94994547 185.1214447 461.69355774 C184.6077533 460.96137024 184.09406189 460.22918274 183.56480408 459.47480774 C183.05111267 458.7439093 182.53742126 458.01301086 182.00816345 457.25996399 C176.8872275 449.95905418 171.78498319 442.64544663 166.69566345 435.32246399 C159.95506156 425.62551455 153.1908492 415.94537166 146.41343689 406.27412415 C143.50604255 402.12459971 140.60098344 397.97344093 137.69566345 393.82246399 C136.52900771 392.15578968 135.36234105 390.48912301 134.19566345 388.82246399 C-26.80433655 158.82246399 -26.80433655 158.82246399 -28.55482483 156.32173157 C-29.71982019 154.65747571 -30.88485915 152.99325038 -32.04994202 151.32905579 C-34.99254066 147.12575476 -37.93434559 142.92190218 -40.87464905 138.71699524 C-41.46367004 137.87531799 -42.05269104 137.03364075 -42.65956116 136.16645813 C-43.82893104 134.49378655 -44.99644721 132.81981733 -46.16200256 131.14448547 C-49.01976003 127.04461354 -51.91172209 122.97914524 -54.8863678 118.96308899 C-55.45146057 118.19118225 -56.01655334 117.41927551 -56.59877014 116.62397766 C-57.66604935 115.16959169 -58.74521498 113.72382746 -59.83802795 112.28852844 C-60.31030823 111.64101624 -60.7825885 110.99350403 -61.2691803 110.32637024 C-61.68804504 109.76764221 -62.10690979 109.20891418 -62.53846741 108.633255 C-63.64414633 106.01903105 -63.11748129 104.51009205 -62.30433655 101.82246399 C-61.52715081 100.1256736 -60.68112445 98.45945125 -59.7848053 96.82246399 C-59.26346008 95.86412659 -58.74211487 94.90578918 -58.20497131 93.91841125 C-57.63963684 92.89674866 -57.07430237 91.87508606 -56.49183655 90.82246399 C-55.90652161 89.75375061 -55.32120667 88.68503723 -54.71815491 87.5839386 C-50.03943042 79.0729839 -45.23699517 70.63530207 -40.3941803 62.21699524 C-37.02934128 56.35960281 -33.72603822 50.46840903 -30.42933655 44.57246399 C-29.85143372 43.53960266 -29.27353088 42.50674133 -28.67811584 41.44258118 C-25.59440616 35.92800197 -22.51749494 30.40968363 -19.44496155 24.88887024 C-18.81444885 23.75804016 -18.18393616 22.62721008 -17.53431702 21.46211243 C-16.32808785 19.29858372 -15.12387492 17.13392923 -13.92201233 14.9679718 C-13.3752887 13.98796204 -12.82856506 13.00795227 -12.26527405 11.99824524 C-11.78880432 11.14142151 -11.31233459 10.28459778 -10.82142639 9.40180969 C-10.32078674 8.55062561 -9.82014709 7.69944153 -9.30433655 6.82246399 C-8.86304916 5.79822327 -8.42176178 4.77398254 -7.96710205 3.71870422 C-4.92138796 0.40593797 -4.29164263 0.34822126 0 0 Z M0.69566345 10.82246399 C-0.70844045 13.05120035 -2.04765 15.29351311 -3.36683655 17.57246399 C-3.80237854 18.31907288 -4.23792053 19.06568176 -4.68666077 19.83491516 C-11.63703469 31.78570361 -18.45952228 43.8110117 -25.30433655 55.82246399 C-27.83334292 60.26025321 -30.36319539 64.69755673 -32.89485168 69.13383484 C-33.89765085 70.89191354 -34.89911135 72.6507556 -35.90052795 74.40962219 C-39.25973939 80.29718324 -42.67214807 86.13512827 -46.25111389 91.89228821 C-47.4640006 93.7485986 -47.4640006 93.7485986 -47.30433655 95.82246399 C-12.98433655 95.82246399 21.33566345 95.82246399 56.69566345 95.82246399 C55.24022801 92.18387539 54.14023324 89.7506588 52.0198822 86.63105774 C51.17006775 85.36987122 51.17006775 85.36987122 50.30308533 84.08320618 C49.352724 82.68570129 49.352724 82.68570129 48.38316345 81.25996399 C46.94813877 79.12939863 45.51441499 76.9980061 44.0823822 74.86543274 C43.68090973 74.26828461 43.27943726 73.67113647 42.86579895 73.05589294 C36.41012862 63.4384046 30.0634428 53.74823778 23.69566345 44.07246399 C19.53392929 37.74982812 15.37057205 31.42827695 11.20249939 25.1098175 C9.82454988 23.01811158 8.45090131 20.92365584 7.07847595 18.82832336 C6.35402283 17.72810852 5.6295697 16.62789368 4.88316345 15.49433899 C4.27859314 14.57233704 3.67402283 13.65033508 3.0511322 12.70039368 C2.60382751 12.08067688 2.15652283 11.46096008 1.69566345 10.82246399 C1.36566345 10.82246399 1.03566345 10.82246399 0.69566345 10.82246399 Z M122.69566345 18.82246399 C122.3396405 19.45934143 121.98361755 20.09621887 121.61680603 20.75239563 C114.64150085 33.22718178 107.64944493 45.69183496 100.60655212 58.12861633 C95.91567737 66.41803872 91.2633159 74.72880228 86.62730408 83.04902649 C82.73290473 90.02282603 78.74201003 96.93576167 74.69566345 103.82246399 C77.52989638 108.96533265 80.64716789 113.7432298 84.07066345 118.50996399 C85.14659444 120.02139085 86.22209803 121.53312202 87.29722595 123.04512024 C87.85571228 123.82903137 88.41419861 124.6129425 88.98960876 125.42060852 C91.82759608 129.4160463 94.63699805 133.43138339 97.44566345 137.44746399 C98.31457214 138.68919373 98.31457214 138.68919373 99.20103455 139.95600891 C103.03194688 145.43403605 106.85276165 150.91903342 110.66880798 156.40742493 C112.01304088 158.34071098 113.35776236 160.27365741 114.70298767 162.20625305 C118.05976794 167.02880826 121.41049772 171.85535546 124.75035095 176.68965149 C126.02368948 178.52565764 127.29712283 180.36159802 128.57066345 182.19746399 C129.15976501 183.05404602 129.74886658 183.91062805 130.3558197 184.79316711 C130.89851501 185.57369446 131.44121033 186.3542218 132.00035095 187.15840149 C132.47456482 187.84466614 132.94877869 188.53093079 133.43736267 189.23799133 C134.62580951 190.963498 134.62580951 190.963498 136.69566345 191.82246399 C137.0516864 191.18558655 137.40770935 190.54870911 137.77452087 189.89253235 C144.74982605 177.41774619 151.74188197 164.95309302 158.78477478 152.51631165 C163.47564954 144.22688925 168.12801101 135.9161257 172.76402283 127.59590149 C173.30607361 126.62523743 173.84812439 125.65457336 174.40660095 124.65449524 C174.93479431 123.70139465 175.46298767 122.74829407 176.00718689 121.76631165 C177.20317508 119.6811142 178.45176938 117.62568838 179.73570251 115.59346008 C180.39538025 114.53852356 181.05505798 113.48358704 181.73472595 112.39668274 C182.65439148 110.97295349 182.65439148 110.97295349 183.59263611 109.52046204 C184.97490449 106.89043384 184.97490449 106.89043384 184.08091736 104.27510071 C182.65593149 101.75211728 181.16174795 99.37532672 179.49253845 97.00605774 C178.84913513 96.08735901 178.20573181 95.16866028 177.54283142 94.22212219 C176.85076599 93.24460999 176.15870056 92.26709778 175.44566345 91.25996399 C174.72910583 90.23926819 174.01254822 89.21857239 173.27427673 88.16694641 C171.79664911 86.06273811 170.31698364 83.95995941 168.83531189 81.8585968 C166.30740421 78.27152927 163.79233551 74.67562245 161.27867126 71.0785675 C159.56264018 68.6234853 157.84437018 66.16998594 156.12535095 63.71699524 C153.2311753 59.58705776 150.33841536 55.45613327 147.4471283 51.32417297 C146.28951803 49.6706976 145.13100508 48.01785379 143.97154236 46.36567688 C140.88452629 41.96443412 137.8172498 37.55083503 134.77378845 33.11933899 C134.13312439 32.19121399 133.49246033 31.26308899 132.8323822 30.30683899 C131.59513653 28.51372932 130.36316861 26.71696401 129.1370697 24.91621399 C128.30755798 23.71738586 128.30755798 23.71738586 127.46128845 22.49433899 C126.97434509 21.78374329 126.48740173 21.07314758 125.98570251 20.34101868 C125.55998962 19.83989563 125.13427673 19.33877258 124.69566345 18.82246399 C124.03566345 18.82246399 123.37566345 18.82246399 122.69566345 18.82246399 Z M190.69566345 114.82246399 C185.30842046 122.86872538 180.62664794 131.38504892 175.99806213 139.8809967 C174.26938733 143.05312056 172.52881437 146.2187129 170.78941345 149.38496399 C170.44139175 150.01901154 170.09337006 150.65305908 169.73480225 151.30632019 C166.53594246 157.12797162 163.28226311 162.9178043 160.00816345 168.69746399 C159.49406921 169.60915344 158.97997498 170.5208429 158.45030212 171.4601593 C155.6634386 176.39261466 152.83598953 181.29771139 149.9651947 186.18183899 C149.05096741 187.75409241 149.05096741 187.75409241 148.11827087 189.35810852 C146.94683887 191.37132332 145.76392778 193.37791594 144.56797791 195.37666321 C144.04550476 196.27916809 143.52303162 197.18167297 142.98472595 198.11152649 C142.51760193 198.90252747 142.05047791 199.69352844 141.56919861 200.50849915 C140.47097431 203.41765787 140.74857339 204.88781458 141.69566345 207.82246399 C142.65352839 209.66185776 142.65352839 209.66185776 143.9261322 211.32637024 C144.39196716 211.97388245 144.85780212 212.62139465 145.3377533 213.28852844 C145.84773865 213.98035217 146.357724 214.6721759 146.88316345 215.38496399 C147.98405892 216.91054759 149.08429269 218.43660885 150.1839447 219.96308899 C150.7609613 220.75908508 151.33797791 221.55508118 151.93247986 222.37519836 C154.85500415 226.43160705 157.71068684 230.5343362 160.57066345 234.63496399 C161.74491864 236.31480808 162.91940002 237.99449407 164.09410095 239.67402649 C164.68288025 240.51610657 165.27165955 241.35818665 165.87828064 242.2257843 C167.74469243 244.89251668 169.61431027 247.55697612 171.48472595 250.22090149 C172.10621521 251.10672913 172.72770447 251.99255676 173.36802673 252.90522766 C174.54527926 254.58304054 175.72328094 256.26032815 176.90220642 257.93696594 C177.44248474 258.70742249 177.98276306 259.47787903 178.53941345 260.27168274 C179.00540955 260.93514709 179.47140564 261.59861145 179.95152283 262.28218079 C181.69566345 264.82246399 181.69566345 264.82246399 182.78341103 267.00336838 C185.43520758 271.90810807 185.43520758 271.90810807 190.07953262 274.64271259 C193.06495561 274.93208029 195.93517534 274.93625951 198.93345642 274.8441925 C200.61726158 274.84616386 200.61726158 274.84616386 202.33508301 274.84817505 C206.0376106 274.84191515 209.73603773 274.77196605 213.43785095 274.70137024 C216.00758131 274.68458038 218.57734051 274.671771 221.14710999 274.66278076 C227.21443926 274.63195444 233.28008167 274.56106612 239.34677613 274.47063535 C246.2558867 274.36989241 253.1650689 274.32051884 260.07473159 274.27537644 C274.28249522 274.18140718 288.4890272 274.02319721 302.69566345 273.82246399 C301.59583379 272.08093316 300.49425338 270.3405079 299.39195251 268.60054016 C298.77870117 267.63122055 298.16544983 266.66190094 297.53361511 265.66320801 C294.97809165 261.71338269 292.23448657 257.92180562 289.44566345 254.13496399 C285.30517494 248.45688565 281.22104758 242.75101995 277.25816345 236.94746399 C273.17062373 230.96243192 269.04329065 225.00731119 264.88316345 219.07246399 C264.29414246 218.23215637 263.70512146 217.39184875 263.09825134 216.52607727 C261.89700642 214.8129039 260.6955895 213.09985113 259.4940033 211.38691711 C256.55841361 207.20073274 253.62722736 203.01146807 250.69566345 198.82246399 C249.52901864 197.15578202 248.36235196 195.48911537 247.19566345 193.82246399 C226.19566345 163.82246399 226.19566345 163.82246399 224.44468689 161.32099915 C223.28136287 159.65915408 222.11795181 157.99736994 220.95445251 156.33564758 C217.98591629 152.09571307 215.01903401 147.85463671 212.05503845 143.61152649 C208.60777056 138.67771992 205.15450892 133.74816061 201.69566345 128.82246399 C201.17858826 128.0854425 200.66151306 127.34842102 200.12876892 126.58906555 C198.71744101 124.5807611 197.30135149 122.57592773 195.88316345 120.57246399 C195.26102966 119.68615295 195.26102966 119.68615295 194.62632751 118.78193665 C193.67481934 117.44369961 192.68917044 116.12982394 191.69566345 114.82246399 C191.36566345 114.82246399 191.03566345 114.82246399 190.69566345 114.82246399 Z M21.69566345 209.82246399 C22.32437347 210.92975357 22.9530835 212.03704315 23.60084534 213.17788696 C24.13131942 214.11216255 24.13131942 214.11216255 24.67251015 215.06531239 C25.90297312 217.1784952 27.24513994 219.18150538 28.65660095 221.17793274 C29.20316345 221.9545929 29.74972595 222.73125305 30.31285095 223.53144836 C30.89292908 224.34935852 31.4730072 225.16726868 32.07066345 226.00996399 C33.3285571 227.79506306 34.58636727 229.58022096 35.84410095 231.36543274 C36.48444275 232.27212708 37.12478455 233.17882141 37.78453064 234.11299133 C40.76685691 238.3411284 43.73076095 242.58210032 46.69566345 246.82246399 C47.85963857 248.48528558 49.02370135 250.14804581 50.18785095 251.81074524 C52.54814469 255.1824993 54.90741255 258.55496809 57.26597595 261.92793274 C62.72742776 269.73685067 68.19526277 277.54091779 73.69566345 285.32246399 C79.79641784 293.95334469 85.85664859 302.61235453 91.91343689 311.27412415 C95.41921588 316.28690786 98.92785216 321.29769226 102.43638611 326.30854797 C105.40506255 330.54874238 108.37212491 334.7900508 111.33628845 339.03340149 C114.24722353 343.19976539 117.16252344 347.36303265 120.0823822 351.52314758 C121.13817433 353.027907 122.19290449 354.53341222 123.2464447 356.03974915 C124.64181577 358.03293915 126.04275405 360.02207568 127.44566345 362.00996399 C127.85204041 362.59245911 128.25841736 363.17495422 128.67710876 363.77510071 C130.74376122 366.78244437 130.74376122 366.78244437 133.69566345 368.82246399 C134.22184265 367.88285828 134.22184265 367.88285828 134.75865173 366.92427063 C135.25606873 366.036026 135.75348572 365.14778137 136.26597595 364.23262024 C136.82550964 363.23343567 137.38504333 362.2342511 137.96153259 361.20478821 C139.21847203 358.96028887 140.47547236 356.71582364 141.73252869 354.47138977 C144.91827953 348.78322067 148.10318455 343.09458337 151.2855072 337.40449524 C157.05134669 327.09687629 162.82880823 316.79595037 168.63316345 306.50996399 C169.17094421 305.55347961 169.70872498 304.59699524 170.26280212 303.61152649 C172.4854345 299.67006304 174.71557741 295.74412905 177.0980072 291.89668274 C178.07447205 290.31306946 178.07447205 290.31306946 179.07066345 288.69746399 C179.61464783 287.84926086 180.1586322 287.00105774 180.71910095 286.12715149 C181.97374992 283.16617993 181.56853775 281.89375108 180.69566345 278.82246399 C179.34820708 276.39605077 179.34820708 276.39605077 177.5901947 274.00605774 C176.94356873 273.08735901 176.29694275 272.16866028 175.63072205 271.22212219 C174.58005554 269.75585388 174.58005554 269.75585388 173.50816345 268.25996399 C172.78709412 267.23926819 172.06602478 266.21857239 171.32310486 265.16694641 C169.8357475 263.06189675 168.34516716 260.95912075 166.85142517 258.8585968 C163.73363799 254.46756607 160.65314071 250.05081037 157.57066345 245.63496399 C156.43562903 244.01360258 155.30021179 242.3925091 154.16441345 240.77168274 C153.60109314 239.96779114 153.03777283 239.16389954 152.4573822 238.33564758 C150.58933757 235.67078458 148.72061439 233.00639805 146.85191345 230.34199524 C146.2191449 229.43924866 145.58637634 228.53650208 144.93443298 227.60639954 C143.72767627 225.88478736 142.52035599 224.16357003 141.31236267 222.44282532 C140.7659613 221.6631842 140.21955994 220.88354309 139.65660095 220.08027649 C138.94189636 219.06151428 138.94189636 219.06151428 138.2127533 218.02217102 C136.69566345 215.82246399 136.69566345 215.82246399 135.2660675 212.72755432 C132.4105296 209.50020353 132.04658972 209.38030553 128.00065613 209.10093689 C126.01783775 209.08352892 124.03456333 209.09953079 122.05210876 209.14131165 C120.42726311 209.13999741 120.42726311 209.13999741 118.76959229 209.13865662 C115.1869257 209.14283885 111.60612819 209.18952514 108.02378845 209.23652649 C105.54086836 209.24771626 103.05793502 209.25625747 100.57499695 209.26225281 C94.70637976 209.28282539 88.83845332 209.33011741 82.97011924 209.39034975 C75.63264858 209.46402449 68.29513837 209.49622541 60.9573822 209.52949524 C47.86980153 209.59385507 34.78277498 209.69511607 21.69566345 209.82246399 Z M187.69566345 290.82246399 C187.16948425 291.7620697 187.16948425 291.7620697 186.63267517 292.72065735 C186.13525818 293.60890198 185.63784119 294.49714661 185.12535095 295.41230774 C184.28605042 296.91108459 184.28605042 296.91108459 183.42979431 298.44013977 C182.17285488 300.68463911 180.91585455 302.92910434 179.65879822 305.17353821 C176.47304738 310.86170731 173.28814235 316.55034461 170.1058197 322.24043274 C168.94833773 324.30948238 167.79078631 326.37849317 166.63316345 328.44746399 C166.06218933 329.46807922 165.49121521 330.48869446 164.90293884 331.54023743 C161.95828844 336.79898677 159.00327738 342.05159007 156.03160095 347.29512024 C155.44000183 348.33909973 154.84840271 349.38307922 154.23887634 350.45869446 C153.11710203 352.4363973 151.99397613 354.41333436 150.86924744 356.38935852 C150.36466003 357.27865051 149.86007263 358.1679425 149.3401947 359.08418274 C148.90038269 359.85721741 148.46057068 360.63025208 148.00743103 361.42671204 C146.49649604 364.1862142 145.10263017 367.00853055 143.69566345 369.82246399 C176.69566345 369.82246399 209.69566345 369.82246399 243.69566345 369.82246399 C239.2839983 362.88984732 234.87020812 356.08064733 230.13316345 349.38496399 C228.90263019 347.63631147 227.67216333 345.88761222 226.4417572 344.13887024 C225.82026794 343.25731262 225.19877869 342.375755 224.55845642 341.46748352 C221.59466887 337.25913826 218.64576968 333.04040508 215.69566345 328.82246399 C214.53944556 327.17139984 213.38319542 325.52035827 212.22691345 323.86933899 C209.78572551 320.38231773 207.34887153 316.89231171 204.91441345 313.40058899 C204.29179626 312.50855774 203.66917908 311.61652649 203.0276947 310.69746399 C201.84687596 309.0055446 200.66710745 307.31289152 199.4886322 305.61933899 C194.29367054 298.06960652 194.29367054 298.06960652 188.69566345 290.82246399 C188.36566345 290.82246399 188.03566345 290.82246399 187.69566345 290.82246399 Z M314.69566345 291.82246399 C308.00162146 303.64052757 301.32529585 315.46812973 294.69566345 327.32246399 C290.64057598 334.57192119 286.57882435 341.81744828 282.49278259 349.04951477 C281.39343862 350.99587847 280.29620739 352.94343727 279.20127869 354.89228821 C276.87080531 359.03090629 274.52131761 363.14599149 272.0355072 367.19355774 C271.64540466 367.83849182 271.25530212 368.4834259 270.8533783 369.14790344 C269.8474808 370.80070559 268.82135067 372.44114957 267.7933197 374.08027649 C266.44050109 376.72438255 266.44050109 376.72438255 267.2073822 379.24824524 C269.13153449 382.57637216 271.23301081 385.74517182 273.44566345 388.88496399 C273.92882019 389.57904358 274.41197693 390.27312317 274.90977478 390.98823547 C276.5000379 393.26987349 278.09752258 395.54633838 279.69566345 397.82246399 C280.78841359 399.38475264 281.88085762 400.94725544 282.9730072 402.50996399 C285.29869996 405.83589316 287.6273583 409.15972419 289.9573822 412.48262024 C293.88399877 418.08628342 297.79068862 423.7037071 301.69566345 429.32246399 C306.9575915 436.89120083 312.22564793 444.45557797 317.50816345 452.00996399 C318.08888611 452.8414093 318.66960876 453.67285461 319.26792908 454.52949524 C319.80740173 455.30035461 320.34687439 456.07121399 320.9026947 456.86543274 C321.37167175 457.53598694 321.8406488 458.20654114 322.32383728 458.89741516 C322.77653992 459.53268127 323.22924255 460.16794739 323.69566345 460.82246399 C324.46269592 461.93488464 324.46269592 461.93488464 325.245224 463.06977844 C325.72386902 463.64816467 326.20251404 464.2265509 326.69566345 464.82246399 C327.35566345 464.82246399 328.01566345 464.82246399 328.69566345 464.82246399 C329.22184265 463.88285828 329.22184265 463.88285828 329.75865173 462.92427063 C330.50477722 461.59190369 330.50477722 461.59190369 331.26597595 460.23262024 C331.82550964 459.23343567 332.38504333 458.2342511 332.96153259 457.20478821 C334.21847203 454.96028887 335.47547236 452.71582364 336.73252869 450.47138977 C339.91827953 444.78322067 343.10318455 439.09458337 346.2855072 433.40449524 C368.61316551 393.48923323 368.61316551 393.48923323 376.69566345 379.82246399 C370.74767181 370.07312431 364.13566314 360.79698779 357.55845642 351.46748352 C354.59466911 347.25913861 351.64568731 343.04046234 348.69566345 338.82246399 C347.53166647 337.15965771 346.36760381 335.4968974 345.20347595 333.83418274 C342.84318221 330.46242868 340.48391435 327.08995989 338.12535095 323.71699524 C335.22226937 319.56553694 332.31585716 315.4164252 329.4080658 311.26826477 C327.66364292 308.77672951 325.92372897 306.28208357 324.1839447 303.78730774 C323.08384655 302.21557957 321.98359314 300.64396006 320.88316345 299.07246399 C320.3731781 298.33874573 319.86319275 297.60502747 319.3377533 296.84907532 C318.14896536 295.15553567 316.92608025 293.48600474 315.69566345 291.82246399 C315.36566345 291.82246399 315.03566345 291.82246399 314.69566345 291.82246399 Z " fill="#FFFFFF" transform="translate(93.30433654785156,12.177536010742188)"/>
</svg>
