<?xml version="1.0" encoding="UTF-8"?>
<svg id="Layer_1" data-name="Layer 1" xmlns="http://www.w3.org/2000/svg" viewBox="0 0 576 125.2">
  <path d="M108.47,1.13c4.2,4.09-4.71,12.27-6.74,15.25-2.15,3.15-5.54,10.03-7.52,12.74-.04.05-1.11-.74-1.24-.56-1.5,2.04-3.04,4.06-4.53,6.11-6.07,8.29-13.16,17.78-18.69,26.72-.37.6-4.79,3.58-3,5.48.87.93,21.02-8.53,23.5-9.79,19.59-9.96,37.51-21.8,57.75-30.84,6.99-3.12,36.47-15.93,41.94-15.63,3.62.2,10.52,3.9,5.87,7.82-1.89,1.59-15.75,6.4-19.87,8.16-26.92,11.54-54.97,26.13-82.14,38.84-4.45,2.08-24.14,8.19-24.86,12.24-.85,4.79,9.55,8.41,13.29,9.77,41.79,15.14,122.86,9.8,163.96-6.98,2.63-1.07,2.9-3.74,7.7-3.33,12.56,1.07-1.54,10.83-4.13,13.75-4.76,5.36-16.57,16.29-.85,12.88,19.13-4.14,69.43-31.14,83.61-44.77,2.98-2.86,8.65-14.77,14.1-7.22,6.54,9.07-21.07,22.84-5.13,30.53,11.92,5.75,30.38,5.2,43.57,4.47,6.7-.37,21.48-1.32,27.26-3.5,9.51-3.57,17.61-24.57,35.33-27.99,6.65-1.28,19.81-1.24,22.55,6.82,3.22,9.47-5.43,12.15-12.09,15.8-.09.05-.17.1-.25.16-7.1,5.02-29.01,7.43-34.25,11.55-4.44,3.5.13,5.68,4.15,5.81,3.45.11,34.03-7.44,39.52-8.84,20.08-5.13,56.9-15.6,74.72-24.79,7.93-4.09,7.48-12.21,18.82-10.66,12.98,1.78,16.62,28.88,14.66,39.25-3.81,20.08-44.43,23.08-60.18,20.67-7.63-1.17-12.14-5.55-11.08-13.64,1.14-8.73,22.71-16.92,25.99-10.06,2.03,4.25-9.25,8.16-11.29,9.65-4.63,3.38.17,5.41.4,5.55,3.27,1.94,16.42-.26,20.66-.97,15.74-2.65,26.67-2.7,25.4-24.24-.14-2.29-3.43-16.06-7.91-16.03-3.26.02-6.29,3.64-8.44,4.68-23.3,11.27-57.66,19.13-86.2,28.48-11.48,3.76-42.64,19.67-53.2,7.91-4.85-5.4,1.52-9.5-12.81-7.98-15.7,1.66-26.75,3.92-43.03.98-4.53-.82-14.22-4.73-17.48-4.55-1.58.08-3.01,3.22-3.04,4.61-.22,8.28,6.22,9.79,10.36,10.94,2.06.57,2.81,3.15,1.35,4.71-8.32,8.9-20.36-.87-22-12.36-.49-3.44.91-16.3-5.33-16.63-1.81-.1-27.45,15.14-32.03,17.17-10.35,4.59-44.79,18.28-54.43,17.06-3.84-.49-8.37-3.86-8.2-8.2.11-2.89,8.82-10.13,5.45-11.01-11.42.38-22.36,3.56-33.63,4.74-37.58,3.94-79.43,5.62-115.18-6.35-8.57-2.87-20.96-12.73-29.59-8.61-11.87,5.66-25.17,29.63-39.61,36.6-9.84,4.75-14.89-1.28-5.3-9.07,30.81-25.03,56.76-60.12,82.23-93.4,2.94-3.84,14.56-26.29,21.11-19.91ZM436.93,72.36c.68.54,16.48-2.55,15.1-6.49-1.9-5.44-17.04,4.95-15.1,6.49Z"/>
  <path d="M266.4,63.26c-1.02,3.05-7.77,3.2-8.71-.87-2.14-9.31,12.26-9.7,8.71.87Z"/>
</svg>